<svg width="16" height="16" viewBox="0 0 16 16" fill="none" xmlns="http://www.w3.org/2000/svg">
<g clip-path="url(#clip0_1806_94)">
<path d="M8 16C12.4183 16 16 12.4183 16 8C16 3.58172 12.4183 0 8 0C3.58172 0 0 3.58172 0 8C0 12.4183 3.58172 16 8 16Z" fill="url(#paint0_linear_1806_94)"/>
<path d="M9.24993 11.8134H8.59452H8.5836H7.73157H7.05431L7.73157 11.368L7.75342 5.65296L5.80904 10.0533L5.68888 9.66217L4.2579 5.05539L3.9302 10.4662L4.57468 10.8899H3.90835H3.62434H2.95801L3.63526 10.4445L3.8865 4.24051L3.25294 3.82764H3.90835H4.33437H4.73853L6.00566 8.89075L7.73157 4.75117H8.2559H8.92223L8.27774 5.1749L8.57268 11.368L9.24993 11.8134Z" fill="white"/>
<path d="M11.5239 8.14106C11.6914 8.27144 11.8625 8.40907 12.0373 8.55393C12.2194 8.6988 12.3832 8.85815 12.5289 9.03199C12.6818 9.20584 12.8056 9.39416 12.9003 9.59698C12.9949 9.79979 13.0423 10.0207 13.0423 10.2597C13.0423 10.535 12.9986 10.7885 12.9112 11.0203C12.8311 11.2521 12.7073 11.4549 12.5398 11.6287C12.3796 11.7953 12.1793 11.9293 11.939 12.0307C11.6987 12.1249 11.4219 12.172 11.1088 12.172C10.9413 12.172 10.7738 12.1503 10.6063 12.1068C10.4461 12.0633 10.2895 12.009 10.1366 11.9438C9.98368 11.8786 9.84168 11.8062 9.7106 11.7265C9.5868 11.6469 9.4812 11.5672 9.39381 11.4875C9.37197 11.4803 9.36104 11.4694 9.36104 11.4549C9.35376 11.4549 9.35012 11.4513 9.35012 11.444L9.51397 11.2267L10.1912 10.3249L10.1257 11.5853C10.1985 11.6215 10.2604 11.6613 10.3114 11.7048C10.3696 11.7483 10.4315 11.7881 10.4971 11.8243C10.5626 11.8605 10.6427 11.8895 10.7374 11.9112C10.8321 11.933 10.9559 11.9438 11.1088 11.9438C11.2909 11.9438 11.4547 11.9076 11.6004 11.8352C11.7533 11.7627 11.8807 11.6686 11.9827 11.5527C12.0846 11.4295 12.1647 11.2883 12.223 11.1289C12.2813 10.9696 12.3104 10.8066 12.3104 10.64C12.3104 10.5241 12.2995 10.4082 12.2776 10.2923C12.2558 10.1764 12.2011 10.0497 12.1138 9.91206C12.0264 9.7672 11.8916 9.60784 11.7096 9.434C11.5348 9.25292 11.2909 9.04286 10.9777 8.80383C10.8175 8.68794 10.6354 8.55393 10.4315 8.40182C10.2349 8.24247 10.0492 8.07225 9.87445 7.89116C9.69967 7.70284 9.55038 7.50364 9.42658 7.29359C9.31007 7.07629 9.25181 6.8445 9.25181 6.59822C9.25181 6.05497 9.41566 5.61675 9.74337 5.28355C10.0711 4.95036 10.5517 4.78376 11.1853 4.78376C11.513 4.78376 11.8079 4.85619 12.0701 5.00106C12.3322 5.14593 12.5471 5.29804 12.7146 5.45739C12.7364 5.46464 12.751 5.47912 12.7582 5.50085L12.5944 5.72902L11.9281 6.61995L12.0482 5.25096C11.9827 5.22198 11.9244 5.19663 11.8734 5.1749C11.8225 5.14593 11.7679 5.1242 11.7096 5.10971C11.6513 5.09523 11.5785 5.08436 11.4911 5.07712C11.411 5.06263 11.3091 5.05539 11.1853 5.05539C11.0178 5.05539 10.8612 5.0916 10.7156 5.16404C10.5699 5.22923 10.4425 5.31977 10.3332 5.43566C10.224 5.54431 10.1366 5.67832 10.0711 5.83767C10.0055 5.98978 9.97276 6.15276 9.97276 6.3266C9.97276 6.44249 9.99461 6.55839 10.0383 6.67428C10.082 6.79017 10.1621 6.91693 10.2786 7.05456C10.3951 7.19218 10.5517 7.34791 10.7483 7.52175C10.9522 7.69559 11.2108 7.90203 11.5239 8.14106Z" fill="white"/>
</g>
<defs>
<linearGradient id="paint0_linear_1806_94" x1="0.887674" y1="0.88784" x2="14.5524" y2="14.5525" gradientUnits="userSpaceOnUse">
<stop stop-color="#00FFDD"/>
<stop offset="0.1198" stop-color="#00FFDD"/>
<stop offset="0.247" stop-color="#1BC1D7"/>
<stop offset="0.4401" stop-color="#4267CF"/>
<stop offset="0.5276" stop-color="#5143CC"/>
<stop offset="0.6555" stop-color="#8229E0"/>
<stop offset="0.7788" stop-color="#AA13F1"/>
<stop offset="0.8762" stop-color="#C306FB"/>
<stop offset="0.9355" stop-color="#CC01FF"/>
<stop offset="1" stop-color="#CC01FF"/>
</linearGradient>
<clipPath id="clip0_1806_94">
<rect width="16" height="16" fill="white"/>
</clipPath>
</defs>
</svg>
