<svg width="51" height="54" viewBox="0 0 51 54" fill="none" xmlns="http://www.w3.org/2000/svg">
<path d="M35.8545 0C33.5071 0.215088 31.0749 1.02943 28.8818 1.60368C27.3462 1.99786 26.2954 3.37252 26.1792 4.90304C25.9427 4.85955 25.7012 4.83653 25.4492 4.86326C24.1925 5.02505 22.9331 5.44412 21.665 5.77574C20.5677 6.06266 19.7263 6.85316 19.2847 7.83691C18.8102 7.58679 18.3035 7.45499 17.771 7.48633C17.1183 7.54807 16.5405 7.74313 15.8814 7.91895C13.945 8.43774 12.7692 10.4933 13.2788 12.4664C13.4858 13.1764 13.6965 13.8877 13.9063 14.5997H9.03566L8.35938 7.21284C8.30001 6.55771 7.7603 6.05655 7.11427 6.0567H1.2549C0.560722 6.05392 -0.002703 6.62772 9.75501e-06 7.33467C0.00250944 8.03773 0.564534 8.60545 1.2549 8.6027H5.96925L9.04298 42.2178C9.10236 42.873 9.64207 43.3741 10.2881 43.374H46.5527C47.2469 43.3768 47.8103 42.803 47.8076 42.096C47.8063 41.392 47.244 40.8228 46.5527 40.8255H11.4331L11.1939 38.2223H43.4522C45.5483 38.2223 47.0016 36.4301 47.273 34.5575C48.4108 29.2502 49.5489 23.9311 50.686 18.6301C51.0057 17.0256 49.9825 14.5997 46.8652 14.5997H42.3413C41.2173 10.6463 40.1154 6.68512 38.9746 2.73745C38.5659 1.23499 37.2868 0.071829 35.8545 0ZM35.7666 2.57832C36.1008 2.54575 36.3952 2.76514 36.5869 3.48335C37.6446 7.18443 38.6931 10.8943 39.7437 14.5997H31.3086C30.4625 11.6432 29.4883 8.25569 28.7061 5.51468C28.5368 4.86899 28.853 4.22921 29.4922 4.06515C31.551 3.53843 33.7226 2.94001 35.7666 2.57832H35.7666ZM25.5786 7.40926C26.1165 7.28464 26.6265 7.72451 26.7774 8.29439C27.3812 10.3959 27.9838 12.4978 28.5864 14.5997H22.9199L21.4819 9.64695C21.31 8.99721 21.6511 8.41486 22.2925 8.24715C23.4354 7.94375 24.5777 7.63962 25.5786 7.40926ZM17.9199 10.0323C18.5159 9.89808 18.9447 10.3357 19.0918 10.905C19.4448 12.1335 19.8041 13.3696 20.1611 14.5997H16.5161C16.2284 13.6347 15.9685 12.7474 15.6885 11.7802C15.526 11.132 15.8782 10.5513 16.5161 10.3804C16.9774 10.2409 17.4509 10.1416 17.9199 10.0323ZM9.26758 17.1457H46.8652C47.8921 17.14 48.355 17.6774 48.2031 18.2546C47.0753 23.5632 45.9103 28.8767 44.7998 34.182C44.662 35.1336 44.2168 35.6763 43.4522 35.6763H11.0181C10.4415 29.4988 9.83597 23.324 9.26758 17.1457ZM17.8101 44.2467C15.2909 44.2467 13.1958 46.3235 13.1958 48.8787C13.1958 51.434 15.2909 53.5033 17.8101 53.5033C20.3293 53.5033 22.4219 51.434 22.4219 48.8787C22.4219 46.3235 20.3293 44.2467 17.8101 44.2467ZM39.2163 44.2467C36.6971 44.2467 34.6021 46.3235 34.6021 48.8787C34.6021 51.434 36.6971 53.5033 39.2163 53.5033C41.7355 53.5033 43.8306 51.434 43.8306 48.8787C43.8306 46.3235 41.7355 44.2467 39.2163 44.2467ZM17.8101 46.7927C19.006 46.7927 19.9219 47.7284 19.9219 48.8787C19.9219 50.0291 19.006 50.9573 17.8101 50.9573C16.6141 50.9573 15.6958 50.0291 15.6958 48.8787C15.6958 47.7284 16.6141 46.7927 17.8101 46.7927ZM39.2163 46.7927C40.4123 46.7927 41.3306 47.7284 41.3306 48.8787C41.3306 50.0291 40.4123 50.9573 39.2163 50.9573C38.0204 50.9573 37.1045 50.0291 37.1045 48.8787C37.1045 47.7284 38.0204 46.7927 39.2163 46.7927Z" fill="url(#paint0_linear)"/>
<defs>
<linearGradient id="paint0_linear" x1="2.80902" y1="2.96189" x2="48.4391" y2="46.2369" gradientUnits="userSpaceOnUse">
<stop stop-color="#4266CF"/>
<stop offset="0.690625" stop-color="#C306FB"/>
<stop offset="1" stop-color="#CC01FF"/>
</linearGradient>
</defs>
</svg>
