<svg width="54" height="53" viewBox="0 0 54 53" fill="none" xmlns="http://www.w3.org/2000/svg">
<path d="M52.3944 30.7586H33.0832V21.2647C33.0832 21.0056 32.9803 20.7572 32.7971 20.574C32.6139 20.3908 32.3655 20.2879 32.1064 20.2879H29.8287V0.976742C29.8287 0.717694 29.7258 0.469256 29.5426 0.286081C29.3594 0.102907 29.111 0 28.8519 0H8.56499C8.30594 0 8.0575 0.102907 7.87432 0.286081C7.69115 0.469256 7.58824 0.717694 7.58824 0.976742V20.2879H1.34784C1.08879 20.2879 0.84035 20.3908 0.657175 20.574C0.474 20.7572 0.371094 21.0056 0.371094 21.2647V52.0233C0.371094 52.2823 0.474 52.5307 0.657175 52.7139C0.84035 52.8971 1.08879 53 1.34784 53H52.3944C52.6534 53 52.9018 52.8971 53.085 52.7139C53.2682 52.5307 53.3711 52.2823 53.3711 52.0233V31.7353C53.3711 31.4763 53.2682 31.2279 53.085 31.0447C52.9018 30.8615 52.6534 30.7586 52.3944 30.7586ZM42.2509 35.7517H40.6139V32.7121H43.8869V35.7517H42.2509ZM18.7085 4.99213H17.0714V1.95348H20.3455V4.99213H18.7085ZM9.54173 1.95348H15.118V5.96887C15.118 6.22792 15.2209 6.47636 15.404 6.65953C15.5872 6.84271 15.8356 6.94562 16.0947 6.94562H21.3222C21.5813 6.94562 21.8297 6.84271 22.0129 6.65953C22.1961 6.47636 22.299 6.22792 22.299 5.96887V1.95348H27.8752V20.2879H9.54173V1.95348ZM16.7276 27.8567H14.7185V22.2414H18.7358V27.8567H16.7276ZM2.32458 22.2414H12.765V28.8334C12.765 29.0925 12.8679 29.3409 13.0511 29.5241C13.2342 29.7073 13.4827 29.8102 13.7417 29.8102H19.7125C19.9716 29.8102 20.22 29.7073 20.4032 29.5241C20.5864 29.3409 20.6893 29.0925 20.6893 28.8334V22.2414H31.1297V51.0465H2.32458V22.2414ZM51.4176 51.0465H33.0832V32.7121H38.6604V36.7284C38.6604 36.9875 38.7633 37.2359 38.9465 37.4191C39.1296 37.6023 39.3781 37.7052 39.6371 37.7052H44.8637C45.1227 37.7052 45.3712 37.6023 45.5543 37.4191C45.7375 37.2359 45.8404 36.9875 45.8404 36.7284V32.7121H51.4176V51.0465Z" fill="url(#paint0_linear)"/>
<defs>
<linearGradient id="paint0_linear" x1="3.30512" y1="2.93403" x2="48.5694" y2="48.1983" gradientUnits="userSpaceOnUse">
<stop stop-color="#4266CF"/>
<stop offset="0.690625" stop-color="#C306FB"/>
<stop offset="1" stop-color="#CC01FF"/>
</linearGradient>
</defs>
</svg>
