<svg width="58" height="53" viewBox="0 0 58 53" fill="none" xmlns="http://www.w3.org/2000/svg">
<path d="M4.59756 0C4.2439 0 3.89024 0.355705 3.89024 0.711409L0 13.8725V18.8524C0 22.4094 1.41463 24.8993 3.89024 26.3221V51.9329C3.89024 52.2886 4.2439 53 4.95122 53H53.7561C54.1098 53 54.8171 52.6443 54.8171 51.9329V26.3221C56.5854 24.8993 58 22.4094 58 19.2081V14.2282L54.1098 0.711409C54.1098 0.355705 53.7561 0 53.0488 0H4.59756V0ZM5.30488 1.77852H14.1463V13.1611H2.12195L5.30488 1.77852ZM15.9146 1.77852H27.939V13.1611H15.9146V1.77852ZM30.061 1.77852H42.0854V13.1611H30.061V1.77852ZM43.8537 1.77852H52.3415L55.5244 13.1611H52.6951H43.8537V1.77852ZM1.76829 15.2953H14.1463V19.5638C14.1463 23.1208 11.3171 25.6107 8.13415 25.6107C4.95122 25.6107 1.76829 22.7651 1.76829 19.2081V15.2953ZM15.9146 15.2953H27.939V19.5638C27.939 23.1208 25.1098 25.6107 21.9268 25.6107C18.3902 25.6107 15.9146 22.7651 15.9146 19.5638V15.2953ZM30.061 15.2953H42.0854V19.5638C42.0854 23.1208 39.2561 25.6107 36.0732 25.6107C32.8902 25.6107 30.061 22.7651 30.061 19.2081V15.2953ZM43.8537 15.2953H52.6951H55.878V19.5638C55.878 23.1208 53.0488 25.6107 49.8659 25.6107C46.3293 25.6107 43.8537 22.7651 43.8537 19.5638V15.2953ZM14.8537 23.1208C16.2683 25.6107 18.7439 27.3893 21.9268 27.3893C25.1098 27.3893 27.5854 25.6107 29 23.1208C30.4146 25.6107 32.8902 27.3893 36.0732 27.3893C39.2561 27.3893 41.7317 25.6107 43.1463 23.1208C44.561 25.6107 47.0366 27.3893 50.2195 27.3893C50.9268 27.3893 51.9878 27.3893 52.6951 27.0336V51.2215H45.9756V34.1477C45.9756 33.792 45.6219 33.0805 44.9146 33.0805H34.6585C34.3049 33.0805 33.5976 33.4362 33.5976 34.1477V50.8658H5.65854V27.0336C6.36585 27.3893 7.07317 27.3893 8.13415 27.3893C10.9634 27.3893 13.7927 25.6107 14.8537 23.1208ZM13.0854 33.0805C12.7317 33.0805 12.0244 33.4362 12.0244 34.1477V43.396C12.0244 43.7517 12.378 44.4631 13.0854 44.4631H27.939C28.2927 44.4631 29 44.1074 29 43.396V34.1477C29 33.792 28.6463 33.0805 27.939 33.0805H13.0854ZM14.1463 35.2148H27.2317V42.6846H14.1463V35.2148ZM35.7195 35.2148H44.2073V51.2215H35.7195V35.2148Z" fill="url(#paint0_linear)"/>
<defs>
<linearGradient id="paint0_linear" x1="3.21082" y1="2.93403" x2="48.2918" y2="52.2679" gradientUnits="userSpaceOnUse">
<stop stop-color="#4266CF"/>
<stop offset="0.690625" stop-color="#C306FB"/>
<stop offset="1" stop-color="#CC01FF"/>
</linearGradient>
</defs>
</svg>
