<svg width="46" height="46" viewBox="0 0 46 46" fill="none" xmlns="http://www.w3.org/2000/svg">
<path d="M42.4776 10.8408C41.0143 11.488 39.4626 11.9131 37.8737 12.1019C39.5484 11.1003 40.8018 9.52405 41.4004 7.66677C39.8287 8.6021 38.1057 9.2576 36.3097 9.61219C35.1034 8.32146 33.5044 7.46545 31.7614 7.17722C30.0184 6.889 28.229 7.18471 26.6713 8.01839C25.1137 8.85207 23.8751 10.177 23.1482 11.7872C22.4213 13.3974 22.2467 15.2027 22.6516 16.9224C19.4644 16.7626 16.3464 15.9344 13.5 14.4914C10.6537 13.0484 8.14265 11.0229 6.12991 8.54652C5.41746 9.77022 5.04307 11.1613 5.04507 12.5773C5.04507 15.3564 6.45957 17.8117 8.61007 19.2492C7.33742 19.2091 6.09278 18.8654 4.97991 18.2468V18.3464C4.98029 20.1974 5.62078 21.9912 6.79278 23.4238C7.96478 24.8564 9.59616 25.8396 11.4103 26.2067C10.2289 26.5268 8.99016 26.574 7.78782 26.3447C8.29932 27.9379 9.29625 29.3312 10.639 30.3296C11.9818 31.3281 13.6032 31.8815 15.2762 31.9126C13.6135 33.2185 11.7097 34.1838 9.67359 34.7534C7.63753 35.323 5.50915 35.4858 3.41016 35.2323C7.07424 37.5887 11.3396 38.8397 15.696 38.8356C30.4409 38.8356 38.5043 26.6207 38.5043 16.0273C38.5043 15.6823 38.4947 15.3334 38.4794 14.9923C40.0489 13.8579 41.4035 12.4527 42.4795 10.8427L42.4776 10.8408Z" fill="white"/>
</svg>
