<svg width="27" height="27" viewBox="0 0 27 27" fill="none" xmlns="http://www.w3.org/2000/svg">
<path d="M13.5 25.7145C11.7858 24.2523 10.1969 22.6494 8.74998 20.9224C6.57856 18.3289 4 14.4665 4 10.786C3.99906 8.90628 4.55576 7.06856 5.59965 5.50539C6.64354 3.94221 8.12769 2.72384 9.86428 2.00448C11.6009 1.28511 13.5118 1.09709 15.3553 1.46419C17.1988 1.8313 18.892 2.73704 20.2205 4.06679C21.105 4.94738 21.8061 5.99465 22.2832 7.14799C22.7603 8.30134 23.0039 9.53785 22.9999 10.786C22.9999 14.4665 20.4214 18.3289 18.2499 20.9224C16.803 22.6494 15.2141 24.2523 13.5 25.7145ZM13.5 6.71456C12.4202 6.71456 11.3846 7.14351 10.621 7.90705C9.8575 8.67058 9.42855 9.70616 9.42855 10.786C9.42855 11.8658 9.8575 12.9014 10.621 13.6649C11.3846 14.4284 12.4202 14.8574 13.5 14.8574C14.5798 14.8574 15.6153 14.4284 16.3789 13.6649C17.1424 12.9014 17.5714 11.8658 17.5714 10.786C17.5714 9.70616 17.1424 8.67058 16.3789 7.90705C15.6153 7.14351 14.5798 6.71456 13.5 6.71456Z" fill="black"/>
</svg>
