<svg width="27" height="27" viewBox="0 0 27 27" fill="none" xmlns="http://www.w3.org/2000/svg">
<path d="M23.625 18.4725V22.4505C23.6251 22.7353 23.5172 23.0096 23.323 23.218C23.1289 23.4263 22.8629 23.5533 22.5788 23.5732C22.0871 23.607 21.6855 23.625 21.375 23.625C11.4334 23.625 3.375 15.5666 3.375 5.625C3.375 5.3145 3.39188 4.91288 3.42675 4.42125C3.44669 4.13712 3.57365 3.87114 3.78203 3.67696C3.9904 3.48278 4.26468 3.37487 4.5495 3.375H8.5275C8.66704 3.37486 8.80166 3.42659 8.90519 3.52015C9.00873 3.6137 9.0738 3.74241 9.08775 3.88125C9.11363 4.14 9.13725 4.34588 9.15975 4.50225C9.38333 6.06254 9.8415 7.58006 10.5188 9.00338C10.6256 9.22838 10.5559 9.49725 10.3534 9.64125L7.92562 11.376C9.41001 14.8348 12.1664 17.5911 15.6251 19.0755L17.3576 16.6523C17.4284 16.5532 17.5318 16.4822 17.6496 16.4516C17.7674 16.421 17.8922 16.4327 18.0023 16.4846C19.4254 17.1606 20.9425 17.6176 22.5023 17.8403C22.6586 17.8628 22.8645 17.8875 23.121 17.9122C23.2596 17.9265 23.3881 17.9916 23.4814 18.0952C23.5747 18.1987 23.6263 18.3331 23.6261 18.4725H23.625Z" fill="black"/>
</svg>
