<svg width="29" height="29" viewBox="0 0 29 29" fill="none" xmlns="http://www.w3.org/2000/svg">
<path d="M26.7798 6.83437C25.8574 7.24241 24.8791 7.5104 23.8774 7.62945C24.9332 6.99802 25.7234 6.00426 26.1008 4.83337C25.1099 5.42303 24.0236 5.83628 22.8914 6.05982C22.1309 5.24611 21.1229 4.70645 20.024 4.52474C18.9251 4.34303 17.797 4.52946 16.815 5.05504C15.8331 5.58062 15.0522 6.4159 14.5939 7.43103C14.1357 8.44616 14.0256 9.58427 14.2808 10.6684C12.2715 10.5677 10.3058 10.0455 8.5114 9.13584C6.71697 8.22613 5.13392 6.94922 3.86502 5.38799C3.41587 6.15945 3.17984 7.03643 3.1811 7.92912C3.1811 9.6812 4.07285 11.2291 5.4286 12.1353C4.62628 12.1101 3.84161 11.8934 3.14002 11.5034V11.5662C3.14026 12.7331 3.54405 13.864 4.28291 14.7671C5.02178 15.6703 6.05026 16.2901 7.19397 16.5216C6.44917 16.7234 5.66822 16.7532 4.91022 16.6086C5.23269 17.613 5.86119 18.4914 6.70773 19.1208C7.55427 19.7503 8.57646 20.0992 9.63118 20.1188C8.58293 20.9421 7.38269 21.5506 6.09908 21.9097C4.81547 22.2688 3.47367 22.3714 2.15039 22.2116C4.46036 23.6972 7.14938 24.4858 9.89581 24.4833C19.1915 24.4833 24.275 16.7826 24.275 10.1041C24.275 9.88662 24.2689 9.6667 24.2593 9.45162C25.2487 8.73649 26.1027 7.8506 26.7811 6.83557L26.7798 6.83437Z" fill="black"/>
</svg>
